Coordinates
version=1
nRows=14
nColumns=36
inDegrees=yes

Units are S.I. units (second, meters, Newtons, ...)
If the header above contains a line with 'inDegrees', this indicates whether rotational values are in degrees (yes) or radians (no).

endheader
time	pelvis_tilt	pelvis_list	pelvis_rotation	pelvis_tx	pelvis_ty	pelvis_tz	hip_flexion_r	hip_adduction_r	hip_rotation_r	knee_angle_r	knee_angle_r_beta	ankle_angle_r	subtalar_angle_r	mtp_angle_r	hip_flexion_l	hip_adduction_l	hip_rotation_l	knee_angle_l	knee_angle_l_beta	ankle_angle_l	subtalar_angle_l	mtp_angle_l	lumbar_extension	lumbar_bending	lumbar_rotation	arm_flex_r	arm_add_r	arm_rot_r	elbow_flex_r	pro_sup_r	arm_flex_l	arm_add_l	arm_rot_l	elbow_flex_l	pro_sup_l
      3.36666670	      9.76099705	      9.09397836	      8.92677659	      0.44932004	      0.74713498	      0.13173948	     36.81128185	    -11.58264054	     11.13633971	     92.71422787	      1.61816854	     36.50817106	    -12.67797122	     -7.49999987	     41.77941366	      6.72824488	     14.26412622	     80.35621602	      1.40248054	      2.41615724	    -34.51350515	     -7.49999987	    -67.36639126	     -7.14070961	     -4.64906170	     -1.47186906	     -2.66631654	    -16.60512669	     78.92911360	     85.68135799	     39.99334990	    -10.46847247	     17.96243520	     30.66845758	     73.20277556
      3.38333330	      8.05155416	      9.55297461	      8.81921624	      0.45161129	      0.72929144	      0.13560273	     39.64179040	    -12.30002386	     12.32614911	     94.99260770	      1.65793377	     38.01083458	    -10.21108440	     -7.49999987	     44.66918888	      6.35609817	     13.23869248	     82.22735267	      1.43513804	      2.07527747	    -34.47606056	     -7.49999987	    -70.07203360	     -6.99499480	     -5.37291204	      2.96596335	     -2.96763139	    -13.79303391	     83.08308151	     88.05032834	     47.24338107	     -9.69839618	     21.12931429	     32.02986353	     74.24555502
      3.40000000	      6.76778989	      9.89735750	      8.20156759	      0.46444974	      0.72883997	      0.13443563	     41.30137440	    -12.87623100	     13.13818018	     96.36392106	      1.68186770	     38.61495533	     -8.72152672	     -7.49999987	     45.98053510	      5.85146034	     12.17380948	     83.04549213	      1.44941727	      1.10513448	    -34.44751050	     -7.49999987	    -73.11649297	     -6.76221925	     -6.29322522	      7.92520887	     -3.58462620	    -10.11833437	     86.43503736	     88.14886885	     53.25010629	     -8.94390606	     21.33836881	     33.16383039	     74.25241472
      3.41666670	      5.28140587	     10.47002279	      7.99062244	      0.47060179	      0.72555099	      0.13682507	     42.98777007	    -13.79311586	     13.71259970	     97.30553646	      1.69830199	     39.49503075	     -6.89997060	     -7.49999987	     47.01709394	      5.52755546	     11.07360540	     83.06636157	      1.44978151	      0.44254710	    -34.42674100	     -7.49999987	    -75.70487453	     -6.60869581	     -7.00144150	     11.84007210	     -3.88231721	     -6.83756817	     89.43743453	     87.25451924	     58.69999435	     -8.52925746	     22.17277715	     36.66970613	     75.48461818
      3.43333330	      4.35092372	     11.01695692	      8.15437488	      0.47844211	      0.72234989	      0.13657310	     43.58645169	    -14.96822795	     13.79208034	     97.84048236	      1.70763856	     40.49489500	     -5.10472070	     -7.49999987	     47.64648263	      5.31800899	     10.11584332	     83.46525437	      1.45674350	     -0.23691238	    -34.42724191	     -7.49999987	    -77.79331544	     -6.15744537	     -7.18197886	     14.03802894	     -4.57638784	     -3.98730275	     92.58640745	     85.70378237	     62.97449686	     -7.52806023	     21.53582349	     42.07387277	     73.86087406
      3.45000000	      2.24365302	     11.43662738	      8.72575657	      0.47636348	      0.71269442	      0.13727362	     45.67605429	    -16.23777551	     13.81042193	     98.39479080	      1.71731307	     41.72761101	     -3.79531482	     -7.49999987	     50.12432493	      5.65274162	      9.42675069	     84.26539129	      1.47070852	     -0.17287635	    -34.42945262	     -7.49999987	    -78.24326726	     -5.77719624	     -6.51039693	     14.93368577	     -5.62763486	     -3.08739527	     99.54402540	     87.22706377	     67.39984341	     -6.06636343	     21.60295515	     48.93803215	     73.97153445
      3.46666670	      1.20261665	     11.46554471	      8.56048943	      0.48567559	      0.70533889	      0.13779666	     46.86052821	    -16.87097653	     13.95194957	     99.28657016	      1.73287755	     43.76487243	     -1.94753711	     -7.49999987	     51.69203236	      5.71514335	      9.46860116	     85.65355305	      1.49493652	      0.54199725	    -34.42943825	     -7.49999987	    -77.81424084	     -5.68077402	     -5.15071988	     15.30831595	     -7.29459541	     -2.50360142	    106.35192039	     94.25763494	     69.79231644	     -4.92786810	     21.12102953	     54.37136024	     74.20606406
      3.48333330	      0.10399225	     12.05508666	      8.36946143	      0.49354504	      0.70573367	      0.14205348	     47.78226462	    -17.38585636	     14.47081041	     99.74293728	      1.74084266	     44.78466037	     -1.07900227	     -7.49999987	     51.72917586	      6.13747749	      9.33726539	     85.18808834	      1.48681262	      1.28121872	    -34.45336864	     -7.49999987	    -76.63467250	     -6.13423993	     -4.64995717	     16.22102007	     -8.68855237	     -1.67052615	    114.29936334	     94.10962348	     71.63314746	     -4.52667876	     20.57495908	     58.67956397	     74.12064466
      3.50000000	      0.08055116	     12.08099388	      7.50150965	      0.50033023	      0.70731992	      0.14637417	     47.34195571	    -16.68992943	     14.45937324	     99.63580171	      1.73897279	     45.30712484	     -0.94404897	     -7.49999987	     50.89646675	      5.94545359	      9.55784214	     85.01553968	      1.48380108	      2.29860468	    -34.49080547	     -7.49999987	    -75.47420130	     -6.92608504	     -3.13975134	     16.47192566	    -10.08193514	     -2.61406658	    120.00735799	     98.61900844	     72.04585248	     -3.96405650	     19.65881873	     63.86163326	     74.37369443
      3.51666670	      0.47353693	     12.07029888	      6.07604864	      0.50458314	      0.71069048	      0.15039946	     46.78860333	    -15.50408311	     14.70965803	     99.43045525	      1.73538882	     45.34458565	     -1.17456638	     -7.49999987	     49.99329266	      5.86265426	      9.75905406	     85.29347368	      1.48865195	      2.97403753	    -34.52207385	     -7.49999987	    -74.04594167	     -7.93726189	     -2.05577974	     16.96673459	    -11.76640079	     -1.60958807	    124.39485654	     97.20038305	     71.72280052	     -4.64776999	     18.41398384	     68.25498256	     73.72858497
      3.53333330	      0.79842736	     12.33820381	      5.22585794	      0.50931650	      0.71268830	      0.15891985	     45.93518437	    -14.27386234	     15.15803647	     99.12888656	      1.73012545	     45.50623445	     -1.92268695	     -7.49999987	     48.24017216	      5.67018105	      9.90432438	     84.09594567	      1.46775114	      3.49740275	    -34.56271586	     -7.49999987	    -71.90661852	     -9.20750234	     -1.00962865	     16.94374596	    -13.38779028	     -0.95841457	    128.48939073	     96.71056066	     70.50110979	     -5.64636806	     17.39635224	     74.29867629	     73.23863702
      3.55000000	      0.35958912	     12.28775955	      5.34561777	      0.51032588	      0.70997690	      0.16813978	     45.92309529	    -12.86600248	     14.82454890	     99.22929812	      1.73187797	     45.34898395	     -3.37996144	     -7.49999987	     48.33499616	      5.21318161	     10.27061829	     83.46656180	      1.45676632	      3.07498686	    -34.58376468	     -7.49999987	    -68.47305530	    -10.16334594	     -0.12855397	     17.32254570	    -15.09409333	     -0.20970488	    132.72032878	    104.22297321	     68.86144804	     -7.67294340	     17.27185402	     80.93842131	     74.80013650
      3.56666670	      0.48293650	     12.16207618	      5.70122751	      0.51121922	      0.73048575	      0.16974997	     44.21805737	    -11.83954592	     14.13765774	     97.28940928	      1.69802052	     44.25459305	     -5.24426852	     -7.49999987	     46.69674413	      5.30109227	     10.95886302	     81.00196984	      1.41375107	      1.84317473	    -34.63263332	     -7.49999987	    -66.14980018	    -10.69161684	      0.92699199	     17.98112174	    -17.06804273	     -0.46169200	    134.97358401	    105.64000191	     68.31073483	     -9.10608663	     17.78688897	     85.44941418	     75.34335187
      3.58333330	      0.93892879	     12.10357911	      6.48953748	      0.50859408	      0.74733395	      0.16691040	     41.78141751	    -11.86068445	     13.06798113	     94.24860466	      1.64494847	     42.12253556	     -7.21382274	     -7.49999987	     44.38840591	      6.06644561	     11.84833345	     77.87412366	      1.35915986	      0.67433897	    -34.67075069	     -7.49999987	    -64.02117322	    -10.11334929	      1.97254900	     17.98127332	    -19.85378256	      0.49782543	    137.31675570	    107.52678750	     66.68467797	    -10.65672584	     17.86905777	     90.06066774	     76.79203524
